<?xml version="1.0" encoding="UTF-8"?>
<svg id="Layer_1" xmlns="http://www.w3.org/2000/svg" version="1.1" viewBox="0 0 60 40">
  <!-- Generator: Adobe Illustrator 29.7.1, SVG Export Plug-In . SVG Version: 2.1.1 Build 8)  -->
  <defs>
    <style>
      .st0 {
        fill: #fff;
      }

      .st1 {
        fill: red;
      }
    </style>
  </defs>
  <rect class="st1" y="0" width="15" height="40"/>
  <rect class="st0" x="15" y="0" width="30" height="40"/>
  <rect class="st1" x="45" y="0" width="15" height="40"/>
  <path class="st1" d="M30,6.61l-2.14,4.04c-.25.44-.68.4-1.12.15l-1.56-.81,1.15,6.2c.25,1.13-.54,1.13-.93.64l-2.71-3.06-.43,1.55c-.05.21-.27.42-.61.37l-3.42-.73.9,3.31c.2.74.34,1.04-.2,1.23l-1.22.58,5.9,4.83c.24.18.35.51.26.81l-.52,1.71c2.03-.24,3.86-.6,5.89-.81.18-.02.47.27.47.49l-.26,6.26h.98l-.16-6.25c0-.21.27-.52.45-.5,2.03.22,3.86.58,5.89.81l-.52-1.72c-.09-.3.03-.62.26-.81l5.9-4.83-1.22-.58c-.54-.2-.39-.5-.2-1.23l.9-3.31-3.42.73c-.34.05-.56-.17-.61-.37l-.43-1.55-2.71,3.06c-.38.49-1.16.49-.93-.64l1.15-6.2-1.56.81c-.43.25-.88.28-1.12-.15l-2.14-4.03h0Z"/>
</svg>