<?xml version="1.0" encoding="UTF-8"?>
<svg id="Layer_1" xmlns="http://www.w3.org/2000/svg" version="1.1" viewBox="0 0 60 40">
  <!-- Generator: Adobe Illustrator 29.7.1, SVG Export Plug-In . SVG Version: 2.1.1 Build 8)  -->
  <defs>
    <style>
      .st0 {
        fill: #00afca;
      }

      .st1 {
        fill: #ffcc4d;
      }
    </style>
  </defs>
  <rect class="st0" y="0" width="60" height="40"/>
  <g>
    <path class="st1" d="M4.73,36s-.33.29-.44.15c-.18-.24.55-1.43.55-1.86,0-.69-.43-.88-.96-.98-.36-.07-.93.03-.93.03.11.16.18.21.36.22-.26.15-.42.44-.41.75,0,.59.23.84.23,1.51,0,.37-.28.84-.28.84.5-.05.75-.55.61-.95.08-.02.16.01.21.07.04-.11-.02-.24-.1-.35.06-.03.11-.01.21,0,0-.11-.07-.23-.23-.35.45.12.73-.21.73-.57,0-.27-.17-.46-.35-.46-.06,0-.13.02-.18.06-.03-.07-.02-.17.02-.24-.12.03-.2.11-.15.28-.09,0-.17.04-.22.11.05.07.14.11.22.11-.07.16,0,.24.12.31,0,0-.07-.31.11-.31.08,0,.16.03.16.16,0,.11-.09.27-.31.26-.22-.01-.39-.16-.39-.53,0-.34.25-.51.59-.52.3-.01.53.17.53.5,0,.45-.6,1.47-.6,1.86,0,.3.25.47.49.47.32,0,.59-.34.59-.34,0,0-.18-.25-.18-.25ZM4.66,27.92c0-.74.62-1.13,1.11-1.13.66,0,1.01.42,1.01.98,0,.32-.05.51-.19.82l-1.51,3.38c-.06.14-.08.3-.07.45,0,.3.27.55.56.56.26,0,.55-.26.55-.57,0-.37-.18-.54-.36-.54-.23,0-.32.1-.32.27,0,.12.05.17.13.17.2,0,.14-.28.14-.28.1.02.16.12.14.23,0,.01,0,.02,0,.03.07.02.14.06.19.12-.05.06-.12.1-.19.11.05.16-.02.24-.15.28.02-.05.03-.12.02-.17-.21.06-.53-.04-.53-.42s.25-.7.71-.63c-.11-.05-.17-.17-.18-.3.08.04.18.04.18.04-.05-.1-.13-.19-.13-.39.09.04.17.12.28.07-.17-.36.04-.86.58-.98-.18.21-.29.49-.29.78,0,.87.23,1.01.23,1.61,0,.28-.14.55-.36.71h0c.16.03.26.12.32.23-.36.11-.89.11-1.17-.01-.26-.04-.48-.2-.62-.44-.14-.34-.14-.73,0-1.07.21-.48,1.23-2.78,1.54-3.51.07-.15.11-.32.11-.49,0-.44-.38-.6-.59-.6-.26,0-.52.21-.52.47,0,.17.08.27.2.27.29,0,.27-.26.21-.43.18.09.29.24.26.41.1.01.2.07.29.17-.07.1-.16.17-.29.17.06.25-.1.36-.26.42.05-.19.08-.4-.21-.4-.22,0-.39-.04-.48-.19,0,.2-.03.99-.03.99-.01.3.37.29.62.2-.09.34-.28.53-.72.48.14.06.23.2.22.36,0,.28-.21.59-.35.68l-.07-2.91h0Z"/>
    <path class="st1" d="M4.8,27.92c0-.74-.62-1.13-1.11-1.13-.66,0-1.01.42-1.01.98,0,.32.05.51.19.82l1.51,3.38c.05.14.08.3.07.45,0,.3-.27.55-.56.56-.26,0-.55-.26-.55-.57,0-.37.18-.54.36-.54.23,0,.32.1.32.27,0,.12-.05.17-.13.17-.2,0-.14-.28-.14-.28-.1.02-.16.12-.14.23,0,.01,0,.02,0,.03-.07.02-.14.06-.19.12.05.06.12.1.19.11-.04.16.02.24.15.27-.02-.05-.03-.12-.02-.17.21.06.53-.04.53-.42s-.25-.7-.71-.63c.11-.05.17-.17.18-.3-.06.02-.12.04-.18.04.05-.1.13-.19.13-.39-.09.04-.16.12-.28.07.17-.36-.04-.86-.58-.98.18.21.29.49.29.78,0,.87-.22,1.01-.22,1.61,0,.25.12.52.36.71h0c-.13.02-.25.11-.32.23.36.11.88.11,1.17-.01.26-.04.48-.2.62-.44.14-.34.14-.73,0-1.07-.21-.48-1.23-2.78-1.54-3.51-.07-.15-.11-.32-.11-.49,0-.44.38-.6.59-.6.26,0,.52.21.52.47,0,.17-.08.27-.2.27-.29,0-.27-.26-.22-.43-.18.09-.29.24-.26.41-.11.02-.22.08-.29.17.07.1.16.17.29.17-.06.25.1.36.26.42-.05-.19-.08-.4.22-.4.22,0,.39-.04.48-.19l.03.99c.01.3-.37.29-.62.2.09.34.28.53.72.48-.14.06-.23.2-.22.36,0,.28.21.59.35.68l.07-2.91h0ZM4.73,36s.33.29.44.15c.18-.24-.55-1.43-.55-1.86,0-.69.43-.88.96-.98.36-.07.94.03.94.03-.11.16-.18.21-.36.22.26.15.42.44.41.75,0,.59-.23.84-.23,1.51,0,.37.28.84.28.84-.5-.05-.75-.55-.61-.95-.08-.02-.16.01-.21.07-.04-.11.02-.24.1-.35-.06-.03-.11-.01-.21,0,0-.11.07-.23.23-.35-.45.12-.73-.21-.73-.57,0-.27.17-.46.35-.46.06,0,.14.03.18.06.03-.07.02-.17-.02-.24.13.03.2.11.15.28.09,0,.17.04.22.11-.05.07-.14.11-.22.11.07.16,0,.24-.12.31,0,0,.07-.31-.11-.31-.08,0-.16.03-.16.16,0,.11.09.27.31.26.21-.01.39-.16.39-.53,0-.34-.25-.51-.59-.52-.3-.01-.53.17-.53.5,0,.45.6,1.47.6,1.86,0,.3-.25.47-.49.47-.32,0-.59-.34-.59-.34,0,0,.18-.25.18-.25ZM4.66,14.85c0-.75.62-1.13,1.11-1.13.66,0,1.01.42,1.01.98,0,.32-.05.51-.19.81l-1.51,3.38c-.06.14-.08.29-.07.45,0,.3.27.55.56.56.26,0,.55-.26.55-.57,0-.37-.18-.54-.36-.54-.23,0-.32.1-.32.27,0,.12.05.17.13.17.2,0,.14-.28.14-.28.1.02.16.12.14.23,0,.01,0,.02,0,.03.07.02.14.06.19.12-.05.06-.12.1-.19.11.05.16-.02.24-.15.27.02-.05.03-.12.02-.17-.21.06-.53-.04-.53-.42s.25-.7.71-.62c-.11-.06-.17-.17-.18-.3.08.04.18.04.18.04-.05-.1-.13-.19-.13-.39.09.04.17.12.28.07-.17-.36.04-.87.58-.98-.18.21-.29.49-.29.78,0,.87.23,1.01.23,1.61,0,.25-.12.52-.36.71h0c.15.03.25.12.31.23-.36.11-.89.11-1.17-.01-.26-.04-.48-.2-.62-.44-.14-.34-.14-.73,0-1.06.21-.48,1.23-2.78,1.54-3.51.07-.15.11-.32.11-.49,0-.44-.38-.6-.59-.6-.26,0-.52.21-.52.47,0,.17.08.27.2.27.29,0,.27-.27.21-.43.18.09.29.24.26.41.1.01.2.07.29.18-.07.1-.16.17-.29.17.06.26-.1.36-.26.42.05-.19.08-.4-.21-.4-.22,0-.39-.04-.48-.19,0,.2-.03.99-.03.99-.01.3.37.29.62.2-.09.34-.28.53-.72.48.14.06.23.2.22.36,0,.28-.21.59-.35.68l-.07-2.91h0Z"/>
    <path class="st1" d="M4.8,14.85c0-.75-.62-1.13-1.11-1.13-.66,0-1.01.42-1.01.98,0,.32.05.51.19.81l1.51,3.38c.05.12.07.25.07.45,0,.3-.27.55-.56.56-.26,0-.55-.26-.55-.57,0-.37.18-.54.36-.54.23,0,.32.1.32.27,0,.12-.05.17-.13.17-.2,0-.14-.28-.14-.28-.1.02-.16.12-.14.22,0,.01,0,.02,0,.04-.07.02-.14.06-.19.12.05.06.12.1.19.11-.04.16.02.24.15.27-.02-.05-.03-.12-.02-.17.21.06.53-.04.53-.42s-.25-.7-.71-.62c.11-.06.17-.17.18-.3-.08.04-.18.04-.18.04.05-.1.13-.19.13-.39-.09.04-.16.12-.28.07.17-.36-.04-.87-.58-.98.18.21.29.49.29.78,0,.87-.22,1.01-.22,1.61,0,.25.12.52.36.71h0c-.15.03-.26.12-.31.23.36.11.88.11,1.17-.01.26-.04.48-.2.62-.44.14-.34.14-.73,0-1.06-.21-.48-1.23-2.78-1.54-3.51-.07-.15-.11-.32-.11-.49,0-.44.38-.6.59-.6.26,0,.52.21.52.47,0,.17-.08.27-.2.27-.29,0-.27-.27-.22-.43-.18.09-.29.24-.26.41-.11.02-.22.08-.29.18.07.1.16.17.29.17-.06.26.1.36.26.42-.05-.19-.08-.4.22-.4.22,0,.39-.04.48-.19l.02.99c.01.3-.37.29-.62.2.09.34.28.53.72.48-.14.06-.23.2-.22.36,0,.28.21.59.35.68l.07-2.91h0Z"/>
    <path class="st1" d="M4.8,12.61c0,.75-.62,1.13-1.11,1.13-.66,0-1.01-.42-1.01-.98,0-.31.05-.51.19-.81l1.51-3.38c.05-.14.08-.29.07-.45,0-.3-.27-.55-.56-.56-.26,0-.55.26-.55.57,0,.37.18.54.36.54.23,0,.32-.1.32-.27,0-.12-.05-.17-.13-.17-.2,0-.14.28-.14.28-.1-.02-.16-.12-.14-.23,0-.01,0-.02,0-.03-.07-.02-.14-.06-.19-.12.05-.06.12-.1.19-.11-.04-.16.02-.24.15-.27-.02.05-.03.12-.02.17.21-.06.53.04.53.42s-.25.7-.71.62c.11.06.17.17.18.3-.06-.02-.12-.03-.18-.04.05.1.13.19.13.39-.09-.04-.16-.12-.28-.07.17.36-.04.87-.58.99.18-.22.29-.49.29-.79,0-.86-.22-1.01-.22-1.61,0-.25.12-.52.36-.71h0c-.13-.02-.25-.11-.31-.23.36-.11.88-.11,1.17.01.26.04.48.2.62.44.14.34.14.73,0,1.06-.21.48-1.23,2.78-1.54,3.51-.07.15-.11.32-.11.49,0,.44.38.6.59.6.26,0,.52-.21.52-.47,0-.17-.08-.27-.2-.27-.29,0-.27.26-.22.43-.18-.09-.29-.24-.26-.41-.11-.02-.22-.08-.29-.18.07-.1.16-.17.29-.17-.06-.25.1-.36.26-.42-.05.19-.08.4.22.4.22,0,.39.04.48.19l.03-1c.01-.3-.37-.29-.62-.2.09-.34.28-.53.72-.48-.14-.06-.23-.2-.22-.36,0-.28.21-.59.35-.68l.07,2.92h0ZM4.8,25.69c0,.75-.62,1.13-1.11,1.13-.66,0-1.01-.42-1.01-.98,0-.28.06-.56.19-.81l1.51-3.38c.05-.14.08-.29.07-.45,0-.3-.27-.55-.56-.56-.26,0-.55.26-.55.57,0,.37.18.54.36.54.23,0,.32-.1.32-.27,0-.12-.05-.17-.13-.17-.2,0-.14.28-.14.28-.1-.02-.16-.13-.14-.23,0-.01,0-.02,0-.03-.07-.02-.14-.06-.19-.12.05-.06.12-.1.19-.11-.04-.16.02-.24.15-.28-.02.05-.03.12-.02.17.21-.06.53.04.53.42s-.25.7-.71.62c.11.06.17.17.18.3-.08-.03-.18-.04-.18-.04.05.1.13.19.13.39-.09-.04-.16-.12-.28-.07.17.36-.04.87-.58.98.18-.21.29-.49.29-.78,0-.86-.22-1.01-.22-1.61,0-.25.12-.52.36-.71h0c-.15-.03-.26-.12-.31-.23.36-.11.88-.11,1.17.01.26.04.48.2.62.44.14.34.14.73,0,1.06-.21.48-1.23,2.78-1.54,3.51-.07.15-.11.32-.11.49,0,.44.38.6.59.6.26,0,.52-.21.52-.47,0-.16-.08-.26-.2-.26-.29,0-.27.26-.22.43-.18-.09-.29-.24-.26-.41-.11-.02-.22-.08-.29-.17.07-.1.17-.17.29-.17-.06-.25.1-.36.26-.42-.05.19-.08.4.22.4.22,0,.39.04.48.19l.03-1c.01-.3-.37-.29-.62-.2.09-.34.28-.53.72-.48-.14-.06-.23-.2-.22-.36,0-.28.21-.59.35-.68l.07,2.91h0Z"/>
    <path class="st1" d="M4.66,25.69c0,.75.62,1.13,1.11,1.13.66,0,1.01-.42,1.01-.98,0-.28-.06-.56-.19-.81l-1.51-3.38c-.06-.14-.08-.29-.07-.45,0-.3.27-.55.56-.56.26,0,.55.26.55.57,0,.37-.18.54-.36.54-.23,0-.32-.1-.32-.27,0-.12.05-.17.13-.17.2,0,.14.28.14.28.1-.02.16-.13.14-.23,0-.01,0-.02,0-.03.07-.02.14-.06.19-.12-.05-.06-.12-.1-.19-.11.05-.16-.02-.24-.15-.28.03.06.03.12.02.17-.21-.06-.53.04-.53.42s.25.7.71.62c-.11.06-.17.17-.18.3.08-.03.18-.04.18-.04-.05.1-.13.19-.13.39.09-.04.17-.12.28-.07-.17.36.04.87.58.98-.18-.21-.29-.49-.29-.78,0-.86.23-1.01.23-1.61,0-.28-.14-.55-.36-.71h0c.13-.02.25-.11.32-.23-.36-.11-.89-.11-1.17.01-.26.04-.48.2-.62.44-.14.34-.14.73,0,1.06.21.48,1.23,2.78,1.54,3.51.07.15.11.31.11.49,0,.44-.38.6-.59.6-.26,0-.52-.21-.52-.47,0-.16.08-.26.2-.26.29,0,.27.26.21.43.18-.09.29-.24.26-.41.11-.02.22-.08.29-.17-.07-.1-.17-.17-.29-.17.06-.25-.1-.36-.26-.42.05.19.08.4-.21.4-.22,0-.39.04-.48.19,0-.2-.03-1-.03-1-.01-.3.37-.29.62-.2-.09-.34-.28-.53-.72-.48.14-.06.23-.2.22-.36,0-.28-.21-.59-.35-.68l-.07,2.91h0ZM4.73,4.53s.33-.3.44-.15c.18.24-.55,1.44-.55,1.86,0,.69.43.88.96.98.36.07.94-.03.94-.03-.11-.16-.18-.2-.37-.22.26-.14.42-.43.41-.75,0-.6-.23-.84-.23-1.51,0-.37.28-.85.28-.85-.5.06-.75.55-.61.95-.08.02-.16-.01-.21-.07-.04.11.02.24.1.35-.06.04-.11.01-.21,0,0,.12.07.23.23.35-.45-.13-.73.21-.73.57,0,.27.17.46.35.46.06,0,.14-.02.18-.06.03.07.02.17-.02.25.13-.03.2-.12.15-.28.09,0,.17-.04.22-.11-.05-.07-.14-.11-.23-.11.07-.16,0-.24-.12-.31,0,0,.07.31-.11.31-.08,0-.16-.03-.16-.16,0-.11.09-.27.31-.26.21,0,.39.16.39.53,0,.34-.25.51-.59.52-.3,0-.53-.17-.53-.5,0-.45.6-1.46.6-1.86,0-.3-.25-.47-.49-.47-.32,0-.59.34-.59.34l.19.25h0Z"/>
    <path class="st1" d="M4.73,4.53s-.33-.3-.44-.15c-.18.24.55,1.44.55,1.86,0,.69-.43.88-.96.98-.36.07-.93-.03-.93-.03.11-.16.18-.2.36-.22-.26-.14-.42-.43-.41-.75,0-.6.23-.84.23-1.51,0-.37-.28-.85-.28-.85.5.06.75.55.61.95.08.01.16-.01.21-.07.04.11-.02.24-.1.35.06.04.11.01.21,0,0,.12-.07.23-.23.35.45-.13.73.21.73.57,0,.27-.17.46-.35.46-.07,0-.13-.02-.18-.06-.03.07-.01.17.02.25-.12-.03-.2-.12-.15-.28-.09,0-.17-.04-.22-.11.05-.07.14-.11.22-.11-.07-.16,0-.24.12-.31,0,0-.07.31.11.31.08,0,.16-.03.16-.16,0-.11-.09-.27-.31-.26-.22,0-.39.16-.39.53,0,.34.25.51.59.52.3,0,.53-.17.53-.5,0-.45-.6-1.46-.6-1.86,0-.3.25-.47.49-.47.32,0,.59.34.59.34l-.18.25h0ZM4.66,12.61c0,.75.62,1.13,1.11,1.13.66,0,1.01-.42,1.01-.98,0-.31-.05-.51-.19-.81l-1.51-3.38c-.05-.14-.08-.29-.07-.45,0-.3.27-.55.56-.56.26,0,.55.26.55.57,0,.37-.18.54-.36.54-.23,0-.32-.1-.32-.27,0-.12.05-.17.13-.17.2,0,.14.28.14.28.1-.02.16-.13.14-.23,0-.01,0-.02,0-.03.07-.02.14-.06.19-.12-.05-.06-.12-.1-.19-.11.05-.16-.02-.24-.15-.27.03.06.03.12.02.17-.21-.06-.53.04-.53.42s.25.7.71.62c-.11.06-.17.17-.18.3.06-.02.12-.03.18-.04-.05.1-.13.19-.13.39.09-.04.17-.12.28-.07-.17.36.04.87.58.99-.18-.22-.29-.49-.29-.79,0-.86.23-1.01.23-1.61,0-.28-.14-.55-.36-.71h0c.13-.02.25-.11.32-.23-.36-.11-.89-.11-1.17.01-.26.04-.48.2-.62.44-.14.34-.14.73,0,1.06.21.48,1.23,2.78,1.54,3.51.07.15.11.32.11.49,0,.44-.38.6-.59.6-.26,0-.52-.21-.52-.47,0-.17.08-.27.2-.27.29,0,.27.26.21.43.18-.09.29-.24.26-.41.11-.02.22-.08.29-.18-.07-.1-.16-.17-.29-.17.06-.25-.1-.36-.26-.42.05.19.08.4-.21.4-.22,0-.39.04-.48.19,0-.2-.03-1-.03-1-.01-.3.37-.29.62-.2-.09-.34-.28-.53-.72-.48.14-.06.23-.2.22-.36,0-.28-.21-.59-.35-.68l-.07,2.91h0Z"/>
  </g>
  <g>
    <ellipse class="st1" cx="32.41" cy="14.89" rx="4.63" ry="4.87"/>
    <path class="st1" d="M32.42,9.66c.27,0,.37-.19.37-.4,0-.29-.37-2.54-.37-2.54,0,0-.38,2.25-.38,2.54,0,.22.1.4.38.4ZM32.42,20.15c-.28,0-.38.18-.38.4,0,.29.38,2.51.38,2.51,0,0,.37-2.22.37-2.51,0-.21-.1-.4-.37-.4ZM31.12,19.94c-.27-.07-.41.08-.46.29-.07.28-.26,2.56-.26,2.56,0,0,.92-2.07.99-2.35.05-.21,0-.42-.27-.49ZM33.71,9.81c.27.07.41-.07.47-.28.07-.28.25-2.53.25-2.53,0,0-.91,2.04-.98,2.32-.05.21,0,.41.27.49h0ZM29.92,19.42c-.24-.14-.41-.04-.52.15-.14.25-.88,2.4-.88,2.4,0,0,1.4-1.75,1.54-2,.1-.19.1-.4-.14-.55h0ZM34.91,10.33c.24.15.42.04.52-.15.14-.25.86-2.37.86-2.37,0,0-1.38,1.73-1.52,1.98-.1.19-.1.4.14.54ZM28.89,18.59c-.2-.2-.39-.15-.53,0-.19.21-1.44,2.08-1.44,2.08,0,0,1.79-1.31,1.98-1.51.15-.15.2-.36,0-.57ZM35.95,11.16c.2.21.39.15.54,0,.2-.2,1.42-2.06,1.42-2.06,0,0-1.76,1.29-1.95,1.5-.15.15-.2.36,0,.56ZM28.1,17.5c-.14-.25-.34-.25-.52-.14-.24.14-1.91,1.61-1.91,1.61,0,0,2.05-.78,2.29-.92.18-.11.28-.3.14-.55ZM36.75,12.26c.14.25.34.25.52.15.24-.15,1.88-1.6,1.88-1.6,0,0-2.02.77-2.26.91-.18.11-.28.29-.14.54h0ZM27.6,16.24c-.07-.28-.27-.33-.47-.28-.27.07-2.24,1.04-2.24,1.04,0,0,2.17-.2,2.43-.27.2-.06.34-.21.27-.49ZM37.25,13.52c.07.28.27.34.47.28.27-.07,2.21-1.04,2.21-1.04,0,0-2.14.19-2.41.27-.2.05-.34.21-.27.48ZM27.43,14.89c0-.29-.18-.39-.38-.39-.27,0-2.42.39-2.42.39,0,0,2.14.4,2.42.4.21,0,.38-.11.38-.4ZM37.42,14.89c0,.29.17.4.38.4.28,0,2.39-.4,2.39-.4,0,0-2.12-.39-2.39-.39-.21,0-.38.11-.38.39ZM27.6,13.53c.07-.28-.07-.43-.27-.48-.27-.07-2.43-.28-2.43-.28,0,0,1.97.97,2.24,1.04.2.06.4,0,.47-.28ZM37.25,16.25c-.07.28.07.43.27.49.27.07,2.41.26,2.41.26,0,0-1.94-.96-2.21-1.03-.2-.05-.39,0-.46.28h0ZM28.1,12.27c.13-.25.04-.43-.14-.54-.24-.14-2.28-.93-2.28-.93,0,0,1.67,1.47,1.9,1.62.18.11.38.11.52-.15h0ZM36.75,17.52c-.14.25-.04.44.14.55.24.15,2.26.91,2.26.91,0,0-1.64-1.45-1.88-1.6-.18-.11-.38-.11-.52.14h0ZM28.89,11.19c.19-.21.14-.41,0-.56-.2-.2-1.98-1.52-1.98-1.52,0,0,1.25,1.88,1.44,2.08.15.15.34.21.54,0ZM35.96,18.61c-.2.21-.15.41,0,.57.19.21,1.96,1.49,1.96,1.49,0,0-1.23-1.85-1.43-2.05-.15-.15-.34-.21-.53,0h0ZM29.93,10.36c.23-.15.24-.36.13-.55-.14-.25-1.53-2-1.53-2,0,0,.74,2.15.88,2.4.1.19.28.29.52.15ZM34.92,19.44c-.24.15-.24.36-.14.55.14.25,1.53,1.98,1.53,1.98,0,0-.73-2.12-.87-2.37-.1-.19-.28-.29-.52-.15h0ZM31.13,9.84c.27-.08.32-.28.27-.49-.07-.28-.99-2.35-.99-2.35,0,0,.19,2.28.26,2.56.05.21.2.36.47.29ZM33.71,19.97c-.27.08-.32.28-.27.49.07.28.99,2.32.99,2.32,0,0-.18-2.25-.26-2.53-.05-.21-.2-.36-.46-.29Z"/>
  </g>
  <g>
    <path class="st1" d="M39.46,29.81l-.09.04h-.1s-.08.03-.08.03l-.14-.03-.06-.02-.06-.02-.07-.04-.11-.07-.1-.07-.06-.04-.07-.03h-.05s-.07-.01-.07-.01l-.28.53-.06.07-.06.06-.06.04-.05.04-.07.02h-.07l-.06-.02-.09-.04-.03-.04-.03-.04-.03-.05-.03-.06-.04-.19-.08.06-.08.09-.16.21-.09.11-.1.09-.05.05-.07.04-.07.03-.08.02h-.11s-.07,0-.07,0l-.05-.02-.16-.17-.18-.17-.12.17-.14.15-.07.06-.06.06-.07.05-.13.06h-.07s-.07.01-.07.01h-.06s-.06-.04-.06-.04l-.04-.04-.05-.06c-.03-.09-.07-.18-.11-.27l-.02-.06-.03-.05-.03-.02h-.03l-.37.54-.05.05-.1.04-.22.05h-.13l-.1-.02h-.03s-.04-.05-.04-.05v-.02s-.01-.05-.01-.05l.05-.54h-.04s-.11.06-.11.06c-.1.09-.19.19-.29.28l-.12.14-.15.11-.14.1-.08.04-.17.02h-.07s-.03-.02-.03-.02l-.03-.03-.02-.04v-.04l.02-.16.04-.25-.03-.15-.06-.09-.08.11-.14.16c-.11.11-.23.22-.35.32-.07.04-.13.08-.19.12l-.15.05h-.03s-.04-.01-.04-.01l-.03-.02h-.01s-.03-.05-.03-.05v-.04s-.01-.05-.01-.05l-.02-.06.02-.47c-.25.15-.5.3-.76.44l-.1.04-.11.05c-.1.02-.2.04-.3.07h-.19s-.09-.04-.09-.04l.04-.1.08-.17.05-.07.06-.07.05-.07.14-.12.15-.1.18-.1.18-.07.21-.06.21-.05.47-.07.23-.03c.69-.04,1.39-.04,2.08-.04l.76-.04.24-.02.44-.07.21-.05.2-.07.18-.07c.1-.07.19-.13.29-.2l.13-.14-.14-.24h.11s.11-.04.11-.04l.11-.05.09-.06.04-.02.05-.04.03-.05.03-.04v-.05s.01-.09.01-.09l-.03-.05.24-.04.25-.02h.26s.27-.01.27-.01c.38.01.76.03,1.14.06.58.06,1.15.11,1.73.16l.52.02v.25s-.04.07-.04.07l-.03.07-.03.06-.04.05s-.1.1-.15.15l-.12.07-.13.05-.13.03-.15.02-.29-.02-.15-.04-.13-.06-.14-.06-.11-.09-.11-.1v.21c-.02.14-.05.27-.07.41l-.05.13-.03.05-.04.04-.03.04-.04.02M28.39,28.65l.31.12c.06-.05.13-.09.19-.13l.12-.06.11-.06.41-.15.36-.15.18-.06.31-.15.12-.08c.31-.18.62-.36.94-.54l.27-.17.21-.15c.21-.17.41-.33.61-.51l.08-.05.1-.05c.11-.05.23-.1.35-.15l.23-.07c.47-.11.94-.2,1.42-.27.49-.05.97-.11,1.46-.16l.65-.1c.16-.04.32-.08.48-.11l.17-.19.27-.26.18-.16.2-.15.24-.16.27-.16.42-.22c.3-.13.59-.27.89-.41.53-.22,1.04-.45,1.56-.69l.25-.15.07-.19.1-.18.12-.19.32-.38c.15-.14.29-.28.43-.42.17-.15.35-.29.52-.43l.27-.2.13-.09.14-.09c.1-.05.2-.1.3-.15l.15-.06.15-.05.32-.08h.16s.15-.02.15-.02h.16s.15.04.15.04v.15s-.05.15-.05.15l-.12.31-.1.16-.12.16-.15.17-.18.17h.14s.12-.04.12-.04l.1-.03.09-.04.18-.05.26-.02.02.09v.09l-.02.09-.03.07-.04.07-.06.07-.05.06-.07.06c-.19.16-.38.32-.58.48h.16c.12.05.24.08.36.11l.13.03-.16.11c-.13.08-.26.15-.39.22l-.44.22-.22.12-.22.14-.21.15h.09s.13.06.13.06h.06s.05.04.05.04h.05s.04,0,.04,0l-.27.14c-.17.07-.34.15-.51.22l-.21.11-.04.04-.03.04-.03.04v.05s.04.04.04.04l.05.04.05.04-.02.05-.03.04-.05.04-.05.04-.13.06-.16.06-.31.1-.2.09.27.24-.1.09-.09.06-.08.04-.1.04-.19.02h-.27l.03.11.04.11.06.25c-.17.12-.35.23-.52.34l-.32.18-.35.18-.21.09-.21.09c-.23.08-.47.15-.7.22l-.53.1-.29.04c.32,0,.64.01.95.01l.78-.07.34-.06.3-.07c.2-.06.4-.13.59-.2l.38-.16.38-.19.35-.2.38-.2-.23-.1-.22-.06-.1-.04c-.08-.03-.16-.07-.24-.1l-.13-.06.11-.07.13-.05.14-.05c.17-.04.33-.07.5-.1.22-.02.43-.04.65-.07l.27-.02.21-.05.06-.03.04-.04h-.01s-.03-.04-.03-.04h-.04s-.05-.04-.05-.04l-.15-.03-.2-.02h-.19s-.19-.04-.19-.04l-.17-.04-.1-.04,1.35-.27.24-.06c.1-.03.2-.07.3-.11l.13-.08.06-.05h-.02s-.03-.04-.03-.04l-.13-.02h-.18s-.21-.01-.21-.01c-.14,0-.28-.02-.43-.02l-.18-.03-.11-.02.2-.07c.29-.08.59-.15.88-.22.17-.05.34-.1.51-.15l.26-.1.12-.06.11-.06.04-.04.04-.05.04-.04.02-.04-.02-.04-.04-.03h-.04s-.38,0-.38,0h-.18s-.25,0-.25,0h-.07s-.05-.04-.05-.04l-.06-.02c.5-.3,1.01-.59,1.52-.88l.4-.25c.11-.08.21-.16.31-.24l.12-.12.11-.12.08-.13.07-.13.04-.15v-.16h-.19s-.22.09-.22.09c-.19.11-.38.21-.58.31l-.11.06-.13.05-.12.04-.11.02h-.11s-.13.01-.13.01l-.11-.04.33-.22c.27-.2.53-.41.8-.62.29-.25.57-.5.85-.77l.4-.4c.12-.14.24-.27.36-.41.1-.13.2-.25.29-.38l.03-.05v-.04s0-.05,0-.05l-.02-.04-.02-.04-.04-.02-.04-.04h-.04s-.05-.04-.05-.04h-.06s-.11-.01-.11-.01h-.05s-.07.02-.07.02l-.04.04-.06.04c-.28.25-.56.51-.83.77l-.33.28c-.22.17-.44.34-.66.51-.1.06-.21.12-.32.18l-.3.14.09-.07c.1-.09.2-.17.29-.26.35-.36.69-.74,1.02-1.12l.64-.8.17-.27.17-.25.14-.22.11-.21.07-.17.02-.06v-.1l-.02-.04-.05-.07-.03-.02h-.05s-.08-.05-.08-.05l-.1-.02h-.24s-.04.02-.04.02l-.06.03-.04.04-.11.09c-.12.13-.24.27-.36.41-.28.39-.57.76-.87,1.13l-.35.37-.18.16-.19.15.25-.41.39-.73.25-.53.11-.27.19-.56c.05-.18.09-.36.13-.54.02-.17.03-.34.05-.51l-.02-.12v-.11s-.03-.11-.03-.11l-.04-.14-.03-.04-.07-.06-.09-.04-.1-.03h-.18s-.03.03-.03.03h-.04s-.02.04-.02.04c-.25.7-.44,1.41-.65,2.12-.08.2-.16.4-.25.59l-.21.36-.13.16.08-.35c.04-.21.08-.41.11-.62l.06-.51.02-.21c0-.11-.02-.21-.03-.32l-.03-.12-.04-.1-.06-.07-.03-.02-.08-.02h-.04s-.05-.01-.05-.01h-.04s-.11.04-.11.04l-.11.05c-.09.38-.19.76-.3,1.14-.16.47-.36.94-.58,1.39-.15.28-.31.55-.47.83l-.3.47-.33.44c-.22.28-.45.55-.68.81-.23.23-.47.46-.7.69-.25.22-.5.43-.76.64-.27.2-.53.39-.81.58-.33.22-.67.42-1.02.62l-.61.32-.96.4-.99.32-.82.22-.85.17-.43.06-.87.1-.44.02h-.04s-.04.02-.04.02l-.08.04-.09.06c-.11.08-.21.17-.32.26l-.22.2-.8.8-.3.27-.36.24-.14.09-.14.08-.3.12c-.47.17-.94.33-1.41.49l-.12.06-.11.05-.08.05-.15.14-.04.06-.03.06v.09s-.01.06-.01.06"/>
    <path class="st1" d="M33.43,29.2l.23.03.11.04h.03v.02h-.06s-.22.05-.22.05h-.18l-.58-.04-1.46-.02c-.39,0-.77.01-1.16.02-.34.02-.68.05-1.02.07l-.26.04-.23.05c-.06.02-.11.04-.16.05l-.07.03-.06.04.03-.13.06-.13-.19.05-.17.07-.07.04-.06.05-.04.06v.06s-.05-.09-.05-.09l-.03-.08c0-.05-.02-.11-.03-.16.02-.07.03-.13.04-.2l.05-.06.03-.05.06-.06.11-.1.15-.09.17-.09c.09.05.19.08.29.11.1,0,.2,0,.29-.02.15.12.55.1.6-.12.02-.08.02-.17,0-.25h.17s.19-.04.19-.04l.43-.1.22-.04.21-.05.19-.02h.16s-.07.04-.07.04l-.36.24-.14.09.18.04.15.02-.33.33-.09.1.11.04.11.03.13.02h.25l.25-.05.1-.05.11.05.11.04c.07.02.14.04.22.05.17.02.34.03.51.05h1.04M32.18,25.45l-.12.22-.14.29c-.07.12-.14.23-.2.35l-.07.06-.16-.12-.18-.11-.19-.09-.2-.07-.44-.1-.22-.04c-.24-.02-.48-.04-.72-.06-.32,0-.63-.02-.95-.04l-.44-.05-.25-.04-.23-.05-.25-.08-.21-.1-.15-.09-.32-.21c-.46-.39-.92-.78-1.39-1.16l-.27-.17-.13-.05-.13-.04-.23-.05c-.14-.04-.27-.08-.41-.12-.13-.06-.26-.11-.39-.16-.23-.13-.45-.26-.66-.41l-.14-.11-.27-.24-.26-.26c-.43-.47-.84-.96-1.27-1.44-.2-.19-.41-.38-.62-.57l-.18-.15-.18-.13-.4-.26h-.04s-.05.05-.05.05l-.04.05c-.03.06-.05.11-.07.17l-.02.05-.1-.04-.08-.04-.1-.04-.08-.02h-.18l-.1.02-.1.04c.08.09.15.17.22.26l.12.17.22.38.08.19.03.1.03.07v.09s.01.07.01.07h-.74l.11.15c.08.1.17.2.26.3l.46.41.15.11.14.09c-.12.01-.24.02-.36.03l-.36.04.12.1c.11.07.21.14.32.21l.18.11.18.1.18.09.17.05.15.04.12.02h.04s.03.04.03.04h.01v.06l-.04.1v.07s-.03.05-.03.05v.04l.02.06v.05s.04.02.04.02l.04.03.05.02h.07s.14.06.14.06l.07.02.06.04h.01v.04h-.01s-.11.09-.11.09l-.06.05-.06.06v.1s.02.13.02.13l.48.15.11.02.11.04.08.04.07.04-.46.32.12.1.15.07.19.09c.14.04.28.09.42.13l.21.04.18.04h.16l-.15.1-.19.11-.21.1-.15.1.14.09c.42.19.85.37,1.28.53.76.28,1.54.52,2.32.74.18.04.35.08.52.12l.22.04-.44-.04c-.28-.03-.55-.07-.82-.11l-.39-.07-.76-.2-.36-.11c-.95-.33-1.88-.71-2.84-1.04l.07-.04.19-.06.12-.02c.17-.04.33-.09.5-.15-.33-.04-.65-.1-.98-.16-.17-.05-.34-.09-.51-.14l-.1-.04-.08-.04-.07-.04-.05-.04h0s.02-.02.02-.02h.04s.04-.04.04-.04l.11-.04.48-.13.28-.09c-.4-.07-.8-.13-1.2-.18l-.19-.04-.15-.05-.06-.03-.05-.04-.05-.02-.03-.04.04-.02.12-.02c.13-.02.26-.04.39-.06l.22-.02c.13-.03.25-.07.37-.1l.06-.04.06-.04-.22-.07-.14-.02-.14-.03-.63-.07-.17-.04-.15-.03-.3-.1-.14-.06-.11-.07-.11-.09-.08-.11h.03s.05-.03.05-.03h.18s.52.04.52.04l.31.03h.49s.09-.04.09-.04l.06-.03c-.26-.09-.52-.19-.77-.3-.17-.08-.34-.15-.51-.22l-.52-.24-.25-.14c-.15-.1-.3-.2-.45-.3l-.19-.15-.09-.09-.09-.07-.05-.07-.06-.09-.06-.07-.03-.09-.02-.16h.2s.11.05.11.05l.11.04.22.12.25.12.11.06.12.06.12.05.11.04.12.03h.11s.13.01.13.01l.11-.04-.33-.22c-.27-.2-.54-.41-.8-.61-.44-.37-.85-.76-1.26-1.16l-.18-.21-.18-.2c-.1-.13-.2-.25-.29-.38l-.03-.05v-.12s.03-.04.03-.04l.04-.02.04-.04.05-.03h.05s.06-.02.06-.02h.18s.06.02.06.02l.05.04c.3.26.59.53.88.8.32.27.65.54.99.79l.32.18.16.08.15.05-.11-.06-.29-.26c-.35-.36-.69-.74-1.02-1.12-.15-.18-.29-.36-.43-.54-.12-.18-.25-.36-.39-.53-.1-.15-.21-.31-.3-.47-.06-.13-.11-.26-.18-.38l-.02-.06v-.1l.02-.04.05-.07.03-.03.04-.02.18-.05h.25s.04.02.04.02l.06.03.15.12.36.41c.28.39.58.76.88,1.13l.33.37.18.16.19.15c-.22-.37-.43-.75-.63-1.13-.09-.18-.17-.35-.25-.53l-.11-.27c-.06-.19-.12-.37-.19-.56l-.07-.27-.05-.28-.03-.26v-.24s0-.12,0-.12l.02-.11v-.11s.04-.11.04-.11l.03-.04.02-.04.04-.04.03-.02.1-.04.1-.02h.18s.04.02.04.02h.03s.02.04.02.04l.02.04c.24.69.43,1.39.63,2.09.08.2.16.39.25.58l.1.18.11.17.12.17-.08-.36c-.03-.21-.07-.41-.11-.61-.03-.24-.05-.48-.07-.72l.03-.32.03-.13.04-.1.06-.07.03-.03.04-.02h.04s.13-.01.13-.01l.11.04.11.05.19.78c.07.24.15.47.23.7.14.35.29.7.46,1.05l.19.36.28.47.3.47.33.44.36.44.33.37c.23.23.46.46.7.69.25.22.5.43.76.64l.4.3c.37.26.74.5,1.13.73.3.16.61.32.92.47l.95.41c.48.17.97.33,1.46.47.48.11.97.21,1.46.3.66.09,1.34.15,2.01.18"/>
  </g>
</svg>